<?xml version="1.0" encoding="utf-8"?>
<!-- Generator: Adobe Illustrator 16.0.0, SVG Export Plug-In . SVG Version: 6.00 Build 0)  -->
<!DOCTYPE svg PUBLIC "-//W3C//DTD SVG 1.1//EN" "http://www.w3.org/Graphics/SVG/1.1/DTD/svg11.dtd">
<svg version="1.1" id="Calque_1" xmlns="http://www.w3.org/2000/svg" xmlns:xlink="http://www.w3.org/1999/xlink" x="0px" y="0px"
	 width="193.697px" height="217.936px" viewBox="0 0 193.697 217.936" enable-background="new 0 0 193.697 217.936"
	 xml:space="preserve">
<g>
	<path fill-rule="evenodd" clip-rule="evenodd" fill="#D34396" d="M89.528,217.936c-5.313-4.115-10.366-8.414-11.146-15.744
		c-0.07-0.654-0.543-1.412-0.339-1.93c2.62-6.66-2.351-8.436-6.689-10.906c-11.416-6.504-22.755-13.146-34.051-19.857
		c-2.703-1.605-4.752-1.893-7.597,0.123c-9.18,6.506-21.005,4.146-26.48-4.922c-5.981-9.904-2.647-21.951,7.834-26.961
		c3.093-1.479,4.007-3.184,3.973-6.432c-0.154-14.824,0.038-29.654-0.207-44.476c-0.029-1.802-1.498-4.372-3.05-5.231
		C0.493,75.354-3.268,63.852,3.063,53.905c6.191-9.728,18.01-11.352,28.334-3.897c0.534,0.385,1.096,0.73,1.939,1.288
		c14.467-8.377,29.026-16.729,43.447-25.312c1.092-0.65,1.864-3.049,1.658-4.471c-1.324-9.126,4.885-18.822,13.727-20.97
		c9.391-2.28,19.2,2.819,22.142,11.688c0.666,2.007,1.284,4.356,0.874,6.33c-1.108,5.33,1.665,7.701,5.83,10.018
		c12.063,6.707,23.968,13.702,35.858,20.712c2.541,1.498,4.277,1.837,7.001-0.196c8.847-6.604,21.005-4.329,26.706,4.55
		c6.059,9.438,3.068,21.601-7.055,26.843c-3.521,1.823-4.582,3.884-4.525,7.685c0.219,14.49,0.16,28.986,0.031,43.478
		c-0.026,3.035,0.818,4.66,3.752,6.045c10.312,4.869,13.828,16.793,8.167,26.498c-5.593,9.584-17.797,12.086-27.167,5.221
		c-2.762-2.023-4.807-2.049-7.576-0.418c-12.754,7.516-25.607,14.859-38.342,22.408c-1.215,0.719-2.773,2.57-2.603,3.648
		c1.61,10.152-2.827,17.291-10.733,22.885C99.528,217.936,94.528,217.936,89.528,217.936z M96.634,151
		c17.996,0,35.991,0.029,53.986-0.045c1.928-0.008,4.377,0.004,5.686-1.08c4.944-4.09,5.554-10.684,2.186-16.529
		c-16.861-29.257-33.795-58.473-50.43-87.86c-3.057-5.4-5.676-9.523-13.062-8.239c-3.066,0.534-4.945,0.912-6.556,3.731
		c-18.071,31.635-36.28,63.19-54.434,94.778c-3.435,5.979,1.762,15.197,8.638,15.221C60.643,151.035,78.638,150.996,96.634,151z
		 M23.288,135.99c0.533,0.139,1.066,0.279,1.6,0.418c19.911-34.477,39.846-68.94,58.797-104.098
		c-2.375,0.213-4.021,0.937-5.57,1.829C66.166,41.03,54.322,48.111,42.248,54.775c-3.833,2.114-5.58,4.377-5.155,8.936
		c0.728,7.805-3.119,13.551-9.966,16.884c-3.408,1.658-4.545,3.784-4.521,7.32c0.097,14.15,0.021,28.302,0.075,42.453
		C22.688,132.242,23.076,134.115,23.288,135.99z M36.366,159.102c1.702,1.617,2.372,2.541,3.273,3.066
		c13.502,7.885,26.994,15.789,40.629,23.436c1.262,0.709,3.855,0.262,5.207-0.613c7.852-5.082,16.079-5.262,23.131,0.391
		c2.293,1.838,3.854,1.756,6.129,0.422c12.625-7.402,25.322-14.68,37.953-22.074c1.572-0.92,2.893-2.271,4.33-3.424
		c-0.168-0.4-0.337-0.803-0.506-1.203C116.863,159.102,77.214,159.102,36.366,159.102z M110.976,31.801
		c-0.479,0.409-0.959,0.819-1.438,1.229c19.822,34.477,39.41,69.09,60.332,103.036c0.916-1.816,1.084-3.273,1.086-4.73
		c0.02-14.666-0.085-29.333,0.087-43.997c0.038-3.28-0.926-5.063-3.954-6.521c-7.522-3.62-11.144-9.878-10.339-18.23
		c0.317-3.297-0.526-5.168-3.449-6.815c-12.177-6.862-24.212-13.975-36.323-20.953C115.04,33.704,112.979,32.802,110.976,31.801z"/>
</g>
</svg>
